<svg xmlns="http://www.w3.org/2000/svg" xmlns:xlink="http://www.w3.org/1999/xlink" width="500" zoomAndPan="magnify" viewBox="0 0 375 112.499997" height="150" preserveAspectRatio="xMidYMid meet" version="1.0"><defs><g/></defs><g fill="#ffffff" fill-opacity="1"><g transform="translate(26.306977, 46.066816)"><g><path d="M 39.5625 -11.78125 C 38.132812 -8.082031 35.796875 -5.117188 32.546875 -2.890625 C 29.265625 -0.585938 25.660156 0.5625 21.734375 0.5625 C 16.410156 0.5625 11.863281 -1.398438 8.09375 -5.328125 C 4.394531 -9.171875 2.546875 -13.789062 2.546875 -19.1875 C 2.546875 -21.863281 3.035156 -24.410156 4.015625 -26.828125 C 4.992188 -29.210938 6.351562 -31.304688 8.09375 -33.109375 C 11.863281 -37.035156 16.410156 -39 21.734375 -39 C 25.660156 -39 29.25 -37.882812 32.5 -35.65625 C 35.738281 -33.394531 38.078125 -30.4375 39.515625 -26.78125 L 35.15625 -26.78125 C 33.082031 -30.59375 29.988281 -33.117188 25.875 -34.359375 C 24.507812 -34.734375 22.941406 -34.921875 21.171875 -34.921875 C 19.398438 -34.921875 17.585938 -34.507812 15.734375 -33.6875 C 13.890625 -32.8125 12.285156 -31.660156 10.921875 -30.234375 C 7.984375 -27.171875 6.515625 -23.488281 6.515625 -19.1875 C 6.515625 -14.925781 7.984375 -11.265625 10.921875 -8.203125 C 13.898438 -5.078125 17.503906 -3.515625 21.734375 -3.515625 C 24.609375 -3.515625 27.25 -4.269531 29.65625 -5.78125 C 32.039062 -7.28125 33.894531 -9.28125 35.21875 -11.78125 Z M 39.5625 -11.78125 "/></g></g></g><g fill="#ffffff" fill-opacity="1"><g transform="translate(69.207215, 46.066816)"><g><path d="M 28.59375 -13.015625 L 28.59375 -10.921875 L 6.6875 -10.921875 C 7.0625 -8.773438 8.097656 -7.019531 9.796875 -5.65625 C 11.523438 -4.257812 13.445312 -3.5625 15.5625 -3.5625 C 17 -3.5625 18.378906 -3.898438 19.703125 -4.578125 C 20.984375 -5.222656 22.054688 -6.128906 22.921875 -7.296875 L 27.453125 -7.296875 C 26.398438 -4.921875 24.816406 -3.054688 22.703125 -1.703125 C 20.546875 -0.304688 18.375 0.390625 16.1875 0.390625 C 13.957031 0.390625 12.070312 0.0507812 10.53125 -0.625 C 8.945312 -1.300781 7.566406 -2.222656 6.390625 -3.390625 C 3.828125 -5.878906 2.546875 -8.9375 2.546875 -12.5625 C 2.546875 -16.144531 3.828125 -19.222656 6.390625 -21.796875 C 8.921875 -24.328125 11.976562 -25.59375 15.5625 -25.59375 C 19.039062 -25.59375 22.082031 -24.363281 24.6875 -21.90625 C 27.289062 -19.414062 28.59375 -16.453125 28.59375 -13.015625 Z M 24.40625 -14.328125 C 23.945312 -16.441406 22.890625 -18.195312 21.234375 -19.59375 C 19.566406 -20.945312 17.675781 -21.625 15.5625 -21.625 C 12.320312 -21.625 9.773438 -20.171875 7.921875 -17.265625 C 7.359375 -16.359375 6.960938 -15.378906 6.734375 -14.328125 Z M 24.40625 -14.328125 "/></g></g></g><g fill="#ffffff" fill-opacity="1"><g transform="translate(101.693767, 46.066816)"><g><path d="M 8.203125 0 L 4.25 0 L 4.25 -42.453125 L 8.203125 -42.453125 Z M 8.203125 0 "/></g></g></g><g fill="#ffffff" fill-opacity="1"><g transform="translate(115.786591, 46.066816)"><g><path d="M 28.59375 -13.015625 L 28.59375 -10.921875 L 6.6875 -10.921875 C 7.0625 -8.773438 8.097656 -7.019531 9.796875 -5.65625 C 11.523438 -4.257812 13.445312 -3.5625 15.5625 -3.5625 C 17 -3.5625 18.378906 -3.898438 19.703125 -4.578125 C 20.984375 -5.222656 22.054688 -6.128906 22.921875 -7.296875 L 27.453125 -7.296875 C 26.398438 -4.921875 24.816406 -3.054688 22.703125 -1.703125 C 20.546875 -0.304688 18.375 0.390625 16.1875 0.390625 C 13.957031 0.390625 12.070312 0.0507812 10.53125 -0.625 C 8.945312 -1.300781 7.566406 -2.222656 6.390625 -3.390625 C 3.828125 -5.878906 2.546875 -8.9375 2.546875 -12.5625 C 2.546875 -16.144531 3.828125 -19.222656 6.390625 -21.796875 C 8.921875 -24.328125 11.976562 -25.59375 15.5625 -25.59375 C 19.039062 -25.59375 22.082031 -24.363281 24.6875 -21.90625 C 27.289062 -19.414062 28.59375 -16.453125 28.59375 -13.015625 Z M 24.40625 -14.328125 C 23.945312 -16.441406 22.890625 -18.195312 21.234375 -19.59375 C 19.566406 -20.945312 17.675781 -21.625 15.5625 -21.625 C 12.320312 -21.625 9.773438 -20.171875 7.921875 -17.265625 C 7.359375 -16.359375 6.960938 -15.378906 6.734375 -14.328125 Z M 24.40625 -14.328125 "/></g></g></g><g fill="#ffffff" fill-opacity="1"><g transform="translate(148.273144, 46.066816)"><g><path d="M 8.203125 0 L 4.25 0 L 4.25 -42.453125 L 8.203125 -42.453125 L 8.203125 -20.65625 C 8.429688 -20.957031 8.675781 -21.242188 8.9375 -21.515625 C 11.28125 -24.148438 14.171875 -25.46875 17.609375 -25.46875 C 21.035156 -25.46875 23.941406 -24.148438 26.328125 -21.515625 C 28.585938 -18.941406 29.71875 -15.921875 29.71875 -12.453125 C 29.71875 -8.984375 28.585938 -5.960938 26.328125 -3.390625 C 23.941406 -0.753906 21.035156 0.5625 17.609375 0.5625 C 14.171875 0.5625 11.28125 -0.753906 8.9375 -3.390625 C 8.675781 -3.660156 8.429688 -3.945312 8.203125 -4.25 Z M 25.75 -12.453125 C 25.75 -14.867188 24.921875 -16.984375 23.265625 -18.796875 C 21.566406 -20.609375 19.472656 -21.515625 16.984375 -21.515625 C 14.492188 -21.515625 12.414062 -20.609375 10.75 -18.796875 C 9.050781 -16.984375 8.203125 -14.867188 8.203125 -12.453125 C 8.203125 -10.035156 9.050781 -7.921875 10.75 -6.109375 C 12.414062 -4.296875 14.492188 -3.390625 16.984375 -3.390625 C 19.472656 -3.390625 21.566406 -4.296875 23.265625 -6.109375 C 24.921875 -7.921875 25.75 -10.035156 25.75 -12.453125 Z M 25.75 -12.453125 "/></g></g></g><g fill="#ffffff" fill-opacity="1"><g transform="translate(182.174592, 46.066816)"><g><path d="M 17.046875 -19.75 C 16.140625 -20.582031 15.15625 -21 14.09375 -21 C 13.070312 -21 12.203125 -20.71875 11.484375 -20.15625 C 10.734375 -19.550781 10.113281 -18.832031 9.625 -18 C 8.675781 -16.34375 8.203125 -14.492188 8.203125 -12.453125 L 8.203125 0 L 4.25 0 L 4.25 -24.90625 L 8.203125 -24.90625 L 8.203125 -19.75 L 8.375 -20.78125 C 9.695312 -23.875 11.753906 -25.421875 14.546875 -25.421875 C 15.410156 -25.421875 16.242188 -25.25 17.046875 -24.90625 Z M 17.046875 -19.75 "/></g></g></g><g fill="#ffffff" fill-opacity="1"><g transform="translate(201.417657, 46.066816)"><g><path d="M 24.0625 -12.453125 C 24.0625 -14.867188 23.226562 -16.984375 21.5625 -18.796875 C 19.863281 -20.609375 17.769531 -21.515625 15.28125 -21.515625 C 12.789062 -21.515625 10.71875 -20.609375 9.0625 -18.796875 C 7.363281 -16.984375 6.515625 -14.867188 6.515625 -12.453125 C 6.515625 -10.035156 7.363281 -7.921875 9.0625 -6.109375 C 10.71875 -4.296875 12.789062 -3.390625 15.28125 -3.390625 C 17.769531 -3.390625 19.863281 -4.296875 21.5625 -6.109375 C 23.226562 -7.921875 24.0625 -10.035156 24.0625 -12.453125 Z M 28.015625 0 L 24.0625 0 L 24.0625 -4.25 C 23.832031 -3.945312 23.601562 -3.660156 23.375 -3.390625 C 21 -0.753906 18.09375 0.5625 14.65625 0.5625 C 11.226562 0.5625 8.34375 -0.753906 6 -3.390625 C 3.695312 -5.960938 2.546875 -8.984375 2.546875 -12.453125 C 2.546875 -15.921875 3.695312 -18.941406 6 -21.515625 C 8.34375 -24.148438 11.226562 -25.46875 14.65625 -25.46875 C 18.09375 -25.46875 21 -24.148438 23.375 -21.515625 C 23.601562 -21.242188 23.832031 -20.957031 24.0625 -20.65625 L 24.0625 -24.90625 L 28.015625 -24.90625 Z M 28.015625 0 "/></g></g></g><g fill="#ffffff" fill-opacity="1"><g transform="translate(235.319105, 46.066816)"><g><path d="M 1.125 -21.234375 L 1.125 -24.90625 L 7.359375 -24.90625 L 7.359375 -34.59375 L 11.328125 -34.59375 L 11.328125 -24.90625 L 17.5 -24.90625 L 17.5 -21.234375 L 11.328125 -21.234375 L 11.328125 0 L 7.359375 0 L 7.359375 -21.234375 Z M 1.125 -21.234375 "/></g></g></g><g fill="#ffffff" fill-opacity="1"><g transform="translate(255.580903, 46.066816)"><g><path d="M 8.265625 -33.515625 C 8.753906 -33.023438 9 -32.441406 9 -31.765625 C 9 -31.046875 8.753906 -30.441406 8.265625 -29.953125 C 7.773438 -29.453125 7.191406 -29.203125 6.515625 -29.203125 C 5.796875 -29.203125 5.191406 -29.453125 4.703125 -29.953125 C 4.210938 -30.441406 3.96875 -31.046875 3.96875 -31.765625 C 3.96875 -32.441406 4.210938 -33.023438 4.703125 -33.515625 C 5.191406 -34.003906 5.796875 -34.25 6.515625 -34.25 C 7.191406 -34.25 7.773438 -34.003906 8.265625 -33.515625 Z M 8.484375 0 L 4.53125 0 L 4.53125 -24.90625 L 8.484375 -24.90625 Z M 8.484375 0 "/></g></g></g><g fill="#ffffff" fill-opacity="1"><g transform="translate(270.183095, 46.066816)"><g><path d="M 24.625 -12.5625 C 24.625 -15.050781 23.738281 -17.1875 21.96875 -18.96875 C 20.1875 -20.738281 18.050781 -21.625 15.5625 -21.625 C 13.070312 -21.625 10.941406 -20.738281 9.171875 -18.96875 C 7.398438 -17.1875 6.515625 -15.050781 6.515625 -12.5625 C 6.515625 -10.113281 7.398438 -8.003906 9.171875 -6.234375 C 10.941406 -4.453125 13.070312 -3.5625 15.5625 -3.5625 C 18.050781 -3.5625 20.1875 -4.453125 21.96875 -6.234375 C 23.738281 -8.003906 24.625 -10.113281 24.625 -12.5625 Z M 28.59375 -12.5625 C 28.59375 -8.9375 27.328125 -5.878906 24.796875 -3.390625 C 22.191406 -0.867188 19.113281 0.390625 15.5625 0.390625 C 12.019531 0.390625 8.960938 -0.867188 6.390625 -3.390625 C 3.828125 -5.878906 2.546875 -8.9375 2.546875 -12.5625 C 2.546875 -16.144531 3.828125 -19.222656 6.390625 -21.796875 C 8.921875 -24.328125 11.976562 -25.59375 15.5625 -25.59375 C 19.15625 -25.59375 22.234375 -24.328125 24.796875 -21.796875 C 27.328125 -19.222656 28.59375 -16.144531 28.59375 -12.5625 Z M 28.59375 -12.5625 "/></g></g></g><g fill="#ffffff" fill-opacity="1"><g transform="translate(302.952627, 46.066816)"><g><path d="M 21.453125 0 L 21.453125 -15.5625 C 21.453125 -17.1875 21.09375 -18.582031 20.375 -19.75 C 19.625 -20.882812 18.398438 -21.453125 16.703125 -21.453125 C 15.003906 -21.453125 13.625 -21.132812 12.5625 -20.5 C 11.507812 -19.851562 10.660156 -19.019531 10.015625 -18 C 8.804688 -16.113281 8.203125 -13.585938 8.203125 -10.421875 L 8.203125 0 L 4.25 0 L 4.25 -24.90625 L 8.203125 -24.90625 L 8.203125 -20.609375 C 9.035156 -22.003906 10.09375 -23.15625 11.375 -24.0625 C 12.738281 -24.96875 14.304688 -25.421875 16.078125 -25.421875 C 17.847656 -25.421875 19.28125 -25.175781 20.375 -24.6875 C 21.46875 -24.15625 22.394531 -23.457031 23.15625 -22.59375 C 24.664062 -20.8125 25.421875 -18.46875 25.421875 -15.5625 L 25.421875 0 Z M 21.453125 0 "/></g></g></g><g fill="#ffffff" fill-opacity="1"><g transform="translate(333.403025, 46.066816)"><g/></g></g><g fill="#ffffff" fill-opacity="1"><g transform="translate(25.175288, 106.548007)"><g><path d="M 14.96875 0.5 C 10.695312 0.5 7.453125 -0.800781 5.234375 -3.40625 C 3.015625 -6.019531 1.90625 -9.6875 1.90625 -14.40625 L 1.90625 -39.609375 C 1.90625 -44.160156 3.015625 -47.597656 5.234375 -49.921875 C 7.453125 -52.242188 10.695312 -53.40625 14.96875 -53.40625 C 19.238281 -53.40625 22.484375 -52.242188 24.703125 -49.921875 C 26.921875 -47.597656 28.03125 -44.160156 28.03125 -39.609375 L 28.03125 -14.40625 C 28.03125 -9.644531 26.921875 -5.96875 24.703125 -3.375 C 22.484375 -0.789062 19.238281 0.5 14.96875 0.5 Z M 14.96875 -9.234375 C 15.914062 -9.234375 16.550781 -9.644531 16.875 -10.46875 C 17.207031 -11.289062 17.375 -12.441406 17.375 -13.921875 L 17.375 -39.796875 C 17.375 -40.941406 17.21875 -41.875 16.90625 -42.59375 C 16.601562 -43.3125 15.976562 -43.671875 15.03125 -43.671875 C 13.257812 -43.671875 12.375 -42.335938 12.375 -39.671875 L 12.375 -13.859375 C 12.375 -12.335938 12.554688 -11.1875 12.921875 -10.40625 C 13.296875 -9.625 13.976562 -9.234375 14.96875 -9.234375 Z M 14.96875 -9.234375 "/></g></g></g><g fill="#ffffff" fill-opacity="1"><g transform="translate(79.244459, 106.548007)"><g><path d="M 2.34375 0 L 2.34375 -52.90625 L 23.53125 -52.90625 L 23.53125 -42.625 L 13 -42.625 L 13 -34.1875 L 22.96875 -34.1875 L 22.96875 -24.015625 L 13 -24.015625 L 13 0 Z M 2.34375 0 "/></g></g></g><g fill="#ffffff" fill-opacity="1"><g transform="translate(127.956349, 106.548007)"><g/></g></g><g fill="#ffffff" fill-opacity="1"><g transform="translate(166.507887, 106.548007)"><g><path d="M 2.34375 0 L 2.34375 -52.90625 L 12.9375 -52.90625 L 12.9375 -9 L 23.84375 -9 L 23.84375 0 Z M 2.34375 0 "/></g></g></g><g fill="#ffffff" fill-opacity="1"><g transform="translate(215.096625, 106.548007)"><g><path d="M 1.84375 0 L 1.84375 -52.90625 L 12.078125 -52.90625 L 12.078125 0 Z M 1.84375 0 "/></g></g></g><g fill="#ffffff" fill-opacity="1"><g transform="translate(253.217127, 106.548007)"><g><path d="M 2.34375 0 L 2.34375 -52.90625 L 23.53125 -52.90625 L 23.53125 -42.625 L 13 -42.625 L 13 -34.1875 L 22.96875 -34.1875 L 22.96875 -24.015625 L 13 -24.015625 L 13 0 Z M 2.34375 0 "/></g></g></g><g fill="#ffffff" fill-opacity="1"><g transform="translate(301.929016, 106.548007)"><g><path d="M 2.34375 0 L 2.34375 -52.90625 L 23.53125 -52.90625 L 23.53125 -42.6875 L 13.125 -42.6875 L 13.125 -32.390625 L 23.09375 -32.390625 L 23.09375 -22.421875 L 13.125 -22.421875 L 13.125 -10.28125 L 24.203125 -10.28125 L 24.203125 0 Z M 2.34375 0 "/></g></g></g></svg>